<?xml version="1.0" encoding="utf-8"?>
<!-- Generator: Adobe Illustrator 27.7.0, SVG Export Plug-In . SVG Version: 6.00 Build 0)  -->
<svg xmlns:xlink="http://www.w3.org/1999/xlink" version="1.1" id="Layer_1" xmlns="http://www.w3.org/2000/svg" x="0px"
     y="0px"
     viewBox="0 0 175.3 175.3" style="enable-background:new 0 0 175.3 175.3;" xml:space="preserve">
<style type="text/css">
	.st0{fill:#FFFFFF;}
</style>
    <path class="st0" d="M94.1,39.8L74.6,4l-6,40.2L39.2,8.4L49,49.6L0,41.4l44,35.8l-30.4,8.9l33.3,5.4l-35.4,48.2l47.1-29.4l-3,38.5
	l25.5-31.2l11.7,53.7l9.9-59l44,39.4l-31.2-56.4l59.7,18l-47.9-38.6l36.4-46.5l-50,23.2l5-37.6L94.1,39.8L94.1,39.8z M134.8,47.7
	L112,76.8l30,24.2l-37.4-11.3l19.6,35.3l-27.6-24.7l-6.2,37l-7.3-33.7l-16,19.6L69,99.2l-29.5,18.5l22.2-30.2L40.8,84l19-5.6
	L32.2,55.9L62.9,61l-6.1-25.8l18.4,22.5l3.7-25.2l12.2,22.4l15.4-16.2l-3.1,23.5L134.8,47.7L134.8,47.7z"/>
</svg>
